<svg width="57" height="22" viewBox="0 0 57 22" fill="none" xmlns="http://www.w3.org/2000/svg">
<path d="M22.3267 18.9492C22.2941 19.0062 22.1639 19.2381 21.936 19.645C21.7163 20.0519 21.3664 20.4222 20.8862 20.7559C20.4061 21.0814 19.8527 21.2441 19.2261 21.2441C18.7378 21.2441 18.2821 21.1546 17.8589 20.9756C17.4438 20.7965 17.098 20.528 16.8213 20.1699C16.5446 19.8118 16.3737 19.3805 16.3086 18.876C16.2272 18.2656 16.1418 16.9635 16.0522 14.9697C15.9627 13.2933 15.918 11.3931 15.918 9.26904C15.918 8.22738 15.9302 7.37288 15.9546 6.70557L15.7227 6.66895L13.3545 17.0571C13.5661 17.5047 13.7288 17.9645 13.8428 18.4365C13.9567 18.9085 14.0706 19.4904 14.1846 20.1821L14.2578 20.5728C13.9486 20.7925 13.5864 20.9552 13.1714 21.061C12.7563 21.175 12.3128 21.2319 11.8408 21.2319C11.2305 21.2319 10.6323 21.1424 10.0464 20.9634C9.46859 20.7843 8.99658 20.5443 8.63037 20.2432C8.63037 19.8281 8.66699 19.3358 8.74023 18.7661C8.82161 18.1965 8.95182 17.7773 9.13086 17.5088L5.60303 6.65674L5.37109 6.74219C5.46875 7.19792 5.6193 8.15413 5.82275 9.61084C6.0262 11.0675 6.20931 12.5853 6.37207 14.1641C6.54297 15.7347 6.63656 17.0042 6.65283 17.9727C6.66911 18.9492 6.45345 19.7386 6.00586 20.3408C5.55827 20.943 4.83398 21.2441 3.83301 21.2441H3.75977H3.60107C2.9012 21.2279 2.2583 21.0448 1.67236 20.6948C1.08643 20.3368 0.679525 19.8607 0.45166 19.2666L1.00098 17.2769L2.35596 17.3867V17.2769L3.19824 6.65674L1.13525 6.03418C1.20036 5.17155 1.39974 4.39844 1.7334 3.71484C2.0752 3.03125 2.63672 2.49007 3.41797 2.09131C3.84928 2.14827 4.47591 2.29883 5.29785 2.54297C6.11979 2.77897 6.94987 3.07601 7.78809 3.43408C8.63444 3.79215 9.31803 4.17057 9.83887 4.56934L11.9385 14.2129L12.0361 14.2007L12.3535 11.5151C12.6465 9.78988 12.9639 8.06868 13.3057 6.35156C12.7686 6.1237 12.3698 5.93245 12.1094 5.77783C12.1826 4.98844 12.443 4.25602 12.8906 3.58057C13.3382 2.89697 13.9526 2.40055 14.7339 2.09131C15.1652 2.14827 15.8 2.35579 16.6382 2.71387C17.4764 3.0638 18.2902 3.46663 19.0796 3.92236C19.8771 4.37809 20.4427 4.78499 20.7764 5.14307C20.6868 7.30778 20.5648 9.42367 20.4102 11.4907C20.2555 13.5496 20.0073 15.4702 19.6655 17.2524L21.936 16.9229L22.3267 18.9492ZM34.9976 8.95166C35.0708 9.30973 35.1196 9.68815 35.144 10.0869C35.1766 10.4775 35.1929 11.0269 35.1929 11.7349C35.1929 12.8742 35.0911 14.1722 34.8877 15.6289C34.6924 17.0775 34.4808 18.2168 34.2529 19.0469C34.1146 19.2178 33.846 19.4294 33.4473 19.6816C33.0485 19.9339 32.6497 20.1618 32.251 20.3652C31.7139 20.6338 31.25 20.8372 30.8594 20.9756C30.4688 21.1139 30.0781 21.2035 29.6875 21.2441C29.1341 21.1953 28.4831 21.0732 27.7344 20.8779C26.9857 20.6826 26.2858 20.4507 25.6348 20.1821C24.9919 19.9054 24.528 19.6247 24.2432 19.3398C23.9909 17.7285 23.7956 16.3369 23.6572 15.165C23.527 13.9932 23.4619 12.8538 23.4619 11.7471C23.4619 10.7298 23.5352 9.7207 23.6816 8.71973C23.9095 8.4349 24.3734 8.11751 25.0732 7.76758C25.7731 7.40951 26.5177 7.09212 27.3071 6.81543C28.0965 6.5306 28.7028 6.3597 29.126 6.30273C29.8014 6.36784 30.5298 6.5306 31.311 6.79102C32.0923 7.05143 32.8125 7.37288 33.4717 7.75537C34.139 8.13786 34.6476 8.53662 34.9976 8.95166ZM27.9053 10.8193C27.8076 11.7959 27.7588 12.7765 27.7588 13.7612C27.7588 15.0633 27.8158 16.2881 27.9297 17.4355C28.597 17.875 29.2725 18.168 29.9561 18.3145L30.6274 17.8506C30.6925 17.1751 30.7251 16.2718 30.7251 15.1406C30.7251 13.863 30.6559 12.5609 30.5176 11.2344L28.6377 10.4653L27.9053 10.8193ZM40.9668 14.3472C41.0075 14.1519 41.0604 13.8589 41.1255 13.4683C41.1987 13.0695 41.2557 12.7521 41.2964 12.5161C41.5161 11.1571 41.7236 10.0055 41.9189 9.06152C42.1224 8.10938 42.3543 7.3444 42.6147 6.7666C43.1274 6.65267 43.6483 6.5957 44.1772 6.5957C44.9178 6.5957 45.6014 6.69743 46.228 6.90088C46.8628 7.10433 47.3796 7.3444 47.7783 7.62109C47.8516 8.13379 47.8882 8.6709 47.8882 9.23242C47.8882 10.152 47.8109 11.096 47.6562 12.0645C47.5098 13.0247 47.3389 13.8996 47.1436 14.689C46.5332 15.0308 45.8903 15.2017 45.2148 15.2017C44.8079 15.2017 44.3522 15.1406 43.8477 15.0186C43.8558 14.7337 43.8599 14.0583 43.8599 12.9922C43.8599 12.2109 43.8558 11.6738 43.8477 11.3809L43.2495 11.2832C42.9484 12.1702 42.5008 13.7612 41.9067 16.0562L41.4795 17.6553L43.7134 17.3623L44.4092 18.998C43.929 19.7549 43.3472 20.3205 42.6636 20.6948C41.98 21.061 41.2394 21.2441 40.4419 21.2441C39.9862 21.2441 39.5833 21.2035 39.2334 21.1221C38.8835 21.0407 38.5864 20.8861 38.3423 20.6582C38.2039 20.5361 38.0412 20.349 37.854 20.0967C37.675 19.8444 37.5122 19.5636 37.3657 19.2544C37.2274 18.937 37.1582 18.6359 37.1582 18.3511C37.1582 18.172 37.1867 18.0093 37.2437 17.8628L38.2202 15.4458L36.0352 8.02393C36.3525 7.5682 36.792 7.21826 37.3535 6.97412C37.915 6.72184 38.5132 6.5957 39.1479 6.5957C39.8153 6.5957 40.4053 6.72184 40.918 6.97412L40.8325 14.3228L40.9668 14.3472ZM49.585 4.76465C49.8779 5.11458 50.2848 5.45231 50.8057 5.77783C51.3265 6.09521 51.7375 6.25798 52.0386 6.26611C52.3234 6.21729 52.7059 6.01383 53.186 5.65576C53.6662 5.28955 54.126 4.87044 54.5654 4.39844C55.0049 3.91829 55.3101 3.49512 55.481 3.12891C55.2612 2.1849 54.7485 1.50944 53.9429 1.10254C53.1453 0.6875 52.2542 0.47998 51.2695 0.47998C50.7568 1.9611 50.1953 3.38932 49.585 4.76465ZM49.2554 18.4121C49.2554 18.2575 49.2716 18.1191 49.3042 17.9971C49.3368 17.875 49.4466 17.5617 49.6338 17.0571C49.9349 16.2515 50.1912 15.5435 50.4028 14.9331L48.8037 8.57324C49.056 8.27214 49.3937 7.9873 49.8169 7.71875C50.2401 7.44206 50.7039 7.22233 51.2085 7.05957C51.7212 6.88867 52.2217 6.80322 52.71 6.80322C53.5156 6.80322 54.187 7.03923 54.7241 7.51123C54.6834 7.75537 54.6305 8.19076 54.5654 8.81738C54.4027 10.3473 54.2358 11.7471 54.0649 13.0166C53.894 14.278 53.7028 15.3441 53.4912 16.2148L53.2593 17.167L55.0903 16.3491L56.0547 17.875C55.6966 18.7051 55.2246 19.4741 54.6387 20.1821C54.0527 20.8901 53.4058 21.2441 52.6978 21.2441C52.3153 21.2441 51.8473 21.0977 51.2939 20.8047C50.7406 20.5036 50.2604 20.1333 49.8535 19.6938C49.4548 19.2544 49.2554 18.8271 49.2554 18.4121Z" fill="white"/>
</svg>
