<?xml version="1.0" standalone="no"?>
<!DOCTYPE svg PUBLIC "-//W3C//DTD SVG 20010904//EN"
 "http://www.w3.org/TR/2001/REC-SVG-20010904/DTD/svg10.dtd">
<svg version="1.0" xmlns="http://www.w3.org/2000/svg"
 width="512.000000pt" height="512.000000pt" viewBox="0 0 512.000000 512.000000"
 preserveAspectRatio="xMidYMid meet">
<metadata>
Created by potrace 1.14, written by Peter Selinger 2001-2017
</metadata>
<g transform="translate(0.000000,512.000000) scale(0.100000,-0.100000)"
fill="#000000" stroke="none">
<path d="M2507 4804 c-1 -1 -45 -5 -97 -9 -282 -19 -620 -135 -865 -295 -390
-256 -677 -657 -790 -1107 -32 -130 -44 -207 -51 -333 -7 -122 8 -68 -250
-899 -184 -590 -194 -625 -179 -647 24 -37 57 -31 96 18 52 65 234 271 252
286 14 12 17 9 25 -25 10 -38 52 -220 98 -423 24 -107 41 -159 53 -161 3 0 14
-2 23 -4 11 -2 92 59 209 156 105 87 193 159 195 159 2 0 16 -24 30 -52 15
-29 46 -84 70 -121 47 -72 49 -81 59 -256 7 -121 15 -141 54 -141 23 0 37 11
70 55 23 30 44 55 46 55 2 0 40 -28 82 -63 224 -180 486 -289 778 -322 57 -6
257 -7 295 -1 14 2 48 7 75 11 88 11 247 57 345 98 146 62 253 129 416 262 24
19 24 19 41 -4 59 -85 104 -111 133 -76 14 17 14 20 25 195 6 108 9 118 40
165 18 28 50 82 71 120 20 39 39 72 40 74 2 2 81 -61 176 -141 207 -173 214
-177 239 -171 26 7 34 23 58 123 11 47 30 126 41 175 12 50 24 101 26 114 3
12 12 53 20 90 9 36 18 77 21 91 2 13 6 26 8 28 7 7 141 -141 232 -255 61 -75
80 -89 113 -78 45 14 44 18 -90 445 -27 85 -99 317 -160 515 -62 198 -120 387
-131 420 -11 33 -22 102 -25 155 -5 101 -17 193 -34 275 -6 28 -13 63 -16 79
-22 114 -130 375 -211 509 -308 514 -867 861 -1454 903 -86 6 -199 10 -202 8z
m308 -118 c17 -3 65 -13 108 -22 193 -37 445 -144 622 -263 420 -281 705 -745
771 -1254 9 -66 12 -679 4 -670 -4 4 -42 114 -85 243 -43 129 -84 243 -93 253
-19 22 -45 22 -65 -1 -15 -16 -17 -57 -19 -326 l-3 -308 -79 142 c-44 79 -89
162 -101 184 -95 176 -175 313 -343 586 -107 173 -202 323 -212 334 -42 44
-87 -5 -235 -257 -144 -247 -290 -621 -339 -872 -2 -5 -8 -35 -14 -65 -6 -30
-14 -68 -16 -84 -3 -16 -7 -30 -9 -33 -3 -2 -38 40 -79 94 -168 221 -688 914
-747 995 -60 82 -86 103 -116 91 -20 -7 -366 -563 -408 -653 -4 -8 -11 -22
-17 -30 -5 -8 -55 -98 -111 -199 -112 -205 -122 -221 -129 -221 -3 0 -5 134
-4 297 0 164 -3 306 -8 315 -11 22 -43 32 -65 19 -13 -6 -52 -100 -118 -280
-55 -148 -102 -268 -104 -266 -5 5 -2 605 3 650 2 17 7 57 10 89 4 33 11 80
17 105 6 25 13 57 15 71 10 52 87 268 121 339 165 345 443 635 776 810 175 92
415 168 592 187 27 3 52 7 54 10 7 6 390 -3 426 -10z m491 -1273 c-3 -4 -17
-7 -30 -8 -24 -1 -24 0 -8 27 15 27 16 27 30 7 8 -11 11 -23 8 -26z m-1468
-159 c38 -51 28 -56 -42 -22 -44 21 -45 22 -30 49 18 35 30 30 72 -27z m1550
32 c13 -12 5 -19 -59 -49 -67 -32 -209 -72 -209 -60 0 3 14 32 32 64 36 65 39
66 152 62 45 -1 75 -7 84 -17z m146 -230 c37 -59 142 -241 233 -405 l165 -296
-5 -195 c-3 -107 -8 -208 -11 -225 -4 -16 -11 -55 -17 -85 -66 -330 -283 -651
-574 -847 -168 -113 -343 -183 -555 -220 -59 -10 -351 -10 -415 0 -286 46
-554 183 -755 386 -122 124 -187 213 -259 357 -105 211 -145 391 -144 659 l0
120 63 113 c34 62 64 111 65 110 2 -2 -3 -32 -9 -69 -19 -95 -9 -128 35 -129
26 0 42 27 45 78 14 171 141 323 309 367 105 27 189 18 290 -31 129 -63 211
-188 229 -348 5 -50 17 -66 47 -66 69 0 44 190 -42 318 -175 263 -541 305
-765 88 -30 -28 -54 -51 -54 -49 0 14 261 455 285 481 2 2 14 -4 27 -12 29
-19 147 -60 203 -70 21 -4 44 -14 50 -21 5 -8 172 -228 369 -490 198 -262 368
-481 378 -486 27 -14 68 14 69 46 1 14 2 28 3 33 1 4 8 43 15 88 12 74 15 81
34 77 34 -6 48 10 53 63 16 158 100 284 231 348 265 131 568 -42 598 -340 6
-70 32 -92 75 -64 37 23 -3 205 -68 306 -169 261 -529 306 -764 96 -26 -24
-48 -40 -48 -35 0 4 9 33 21 63 11 30 24 66 29 80 8 25 33 84 72 173 18 39 26
47 49 47 82 0 299 68 339 106 18 18 20 16 104 -120z m-2539 -668 c-1 -139 3
-263 8 -275 12 -27 39 -34 70 -18 22 11 23 10 24 -14 0 -100 29 -269 66 -383
l25 -78 -127 -104 c-69 -57 -142 -118 -161 -135 -19 -17 -38 -31 -41 -31 -6 0
-16 41 -94 388 -24 106 -49 200 -55 208 -16 18 -53 18 -88 0 -15 -8 -62 -50
-104 -94 -43 -44 -78 -77 -78 -74 0 3 24 82 54 176 30 94 84 268 121 386 36
118 70 224 74 235 5 11 8 -88 8 -219 0 -234 1 -240 22 -257 47 -38 59 -20 152
227 89 235 120 314 123 314 1 0 1 -114 1 -252z m3284 -120 c42 -127 60 -169
75 -176 26 -12 63 1 70 25 3 10 5 110 5 223 0 113 1 216 1 230 1 23 47 -119
179 -550 28 -91 57 -185 66 -210 l15 -45 -63 67 c-113 120 -164 149 -208 115
-10 -8 -29 -74 -53 -182 -43 -194 -41 -185 -55 -245 -7 -25 -14 -56 -17 -70
-3 -14 -9 -42 -15 -63 -9 -34 -12 -37 -27 -25 -9 7 -82 66 -162 132 -80 66
-147 121 -149 123 -2 1 8 40 22 85 27 84 29 97 47 203 15 96 19 136 20 205 l0
65 23 -39 c27 -47 56 -60 86 -40 20 15 21 22 22 267 l0 252 32 -90 c18 -50 56
-165 86 -257z"/>
<path d="M1795 2772 c-199 -18 -345 -188 -345 -401 0 -163 83 -302 220 -369
48 -23 67 -27 145 -27 108 1 160 22 235 95 230 224 119 646 -183 698 -23 4
-55 6 -72 4z m152 -143 c92 -57 146 -211 119 -336 -10 -47 -45 -110 -81 -147
-135 -137 -342 -82 -415 110 -18 49 -21 72 -17 135 15 229 214 349 394 238z"/>
<path d="M3274 2769 c-147 -18 -278 -142 -313 -300 -6 -24 -9 -81 -7 -127 3
-72 9 -93 40 -157 152 -308 548 -278 661 50 50 149 6 335 -105 439 -82 77
-170 107 -276 95z m163 -135 c126 -74 176 -272 103 -414 -30 -60 -67 -97 -122
-124 -126 -63 -267 -7 -335 132 -24 49 -28 69 -28 142 0 99 20 152 80 219 83
91 195 108 302 45z"/>
<path d="M2495 1596 c-80 -35 -112 -131 -65 -196 15 -21 16 -27 4 -45 -41 -63
-19 -153 48 -190 66 -37 187 -10 201 46 10 36 -51 67 -78 40 -6 -5 -24 -12
-42 -14 -66 -10 -85 66 -24 97 16 9 31 21 33 28 8 19 -9 58 -25 58 -7 0 -23
10 -34 23 -15 16 -19 28 -13 44 13 31 46 38 86 17 26 -14 38 -16 52 -8 22 14
27 50 11 71 -28 33 -110 49 -154 29z"/>
</g>
</svg>
